<svg viewBox="0 0 70 16" fill="none" xmlns="http://www.w3.org/2000/svg">
  <path class="st0" fill-rule="evenodd" clip-rule="evenodd" d="M7.83105 11.52H10.8676V16H7.19178C6.80822 16 6.42306 16 6.0395 15.9664C4.49367 15.8266 3.04585 15.1482 1.94833 14.0494C0.850819 12.9507 0.1732 11.5012 0.0335615 9.9536C0 9.5696 0 9.184 0 8.8V0H4.79452V8.48V8.48003C4.79452 8.64002 4.79452 8.80001 4.8089 8.96C4.86616 9.61588 5.15244 10.2306 5.61745 10.6961C6.08246 11.1617 6.69647 11.4483 7.3516 11.5056C7.5114 11.52 7.67121 11.52 7.83102 11.52H7.83105ZM26.29 8.48V0H31.0845V8.8V8.80007C31.0845 9.18404 31.0845 9.56962 31.0509 9.9536C30.9113 11.5012 30.2337 12.9507 29.1361 14.0494C28.0386 15.1482 26.5908 15.8266 25.045 15.9664C24.6614 16 24.2763 16 23.8927 16H22.6142C22.2306 16 21.8454 16 21.4619 15.9664C19.916 15.8266 18.4682 15.1482 17.3707 14.0494C16.2732 12.9507 15.5956 11.5012 15.4559 9.9536C15.4224 9.5696 15.4224 9.184 15.4224 8.8V0H20.2169V8.48C20.2169 8.64 20.2169 8.8 20.2313 8.96C20.2902 9.61574 20.578 10.2297 21.0442 10.6941C21.5104 11.1585 22.1251 11.4435 22.7804 11.4992C22.9402 11.5136 23.1 11.5136 23.2598 11.5136C23.4196 11.5136 23.5795 11.5136 23.7393 11.4992C24.3923 11.4407 25.004 11.1544 25.4675 10.6903C25.9311 10.2261 26.2171 9.61374 26.2756 8.96C26.29 8.8 26.29 8.64 26.29 8.48ZM46.7466 0V8.48C46.7466 8.64 46.7466 8.8 46.7322 8.96C46.6737 9.61374 46.3877 10.2261 45.9242 10.6903C45.4606 11.1544 44.8489 11.4407 44.1959 11.4992C44.0361 11.5136 43.8763 11.5136 43.7164 11.5136C43.5566 11.5136 43.3968 11.5136 43.237 11.4992C42.5817 11.4435 41.967 11.1585 41.5008 10.6941C41.0346 10.2297 40.7468 9.61574 40.6879 8.96C40.6735 8.8 40.6735 8.64 40.6735 8.48V0H35.879V8.8C35.879 9.184 35.879 9.5696 35.9126 9.9536C36.0522 11.5012 36.7298 12.9507 37.8273 14.0494C38.9248 15.1482 40.3727 15.8266 41.9185 15.9664C42.3021 16 42.6872 16 43.0708 16H44.3493C44.7329 16 45.118 16 45.5016 15.9664C47.0474 15.8266 48.4952 15.1482 49.5928 14.0494C50.6903 12.9507 51.3679 11.5012 51.5075 9.9536C51.5411 9.5696 51.5411 9.184 51.5411 8.8V0H46.7466ZM69.9728 6.776C70 6.464 70 6.16 70 5.84C70 5.528 70 5.216 69.9728 4.904C69.8597 3.64876 69.3101 2.47308 68.4199 1.58188C67.5297 0.690683 66.3554 0.140489 65.1016 0.0271997C64.79 0 64.4783 0 64.1667 0H56.2557V16H61.0502V11.68H64.1667C64.4783 11.68 64.782 11.68 65.1016 11.6528C66.3554 11.5395 67.5297 10.9893 68.4199 10.0981C69.3101 9.20692 69.8597 8.03124 69.9728 6.776ZM65.6753 5.4944C65.6849 5.6096 65.6849 5.7248 65.6849 5.84C65.6849 5.9552 65.6849 6.0704 65.6753 6.1856C65.6328 6.64991 65.4293 7.08465 65.0999 7.41435C64.7706 7.74404 64.3364 7.94785 63.8726 7.9904C63.7575 8 63.6425 8 63.5274 8H61.0502V3.68H63.5274C63.6425 3.68 63.7575 3.68 63.8726 3.6896C64.3364 3.73215 64.7706 3.93596 65.0999 4.26566C65.4293 4.59535 65.6328 5.03009 65.6753 5.4944Z"/>
</svg>
